HIERARCHY
ROOT Hips
{
	OFFSET 0.000000 0.000000 0.000000
	CHANNELS 6 Xposition Yposition Zposition Xrotation Yrotation Zrotation
	JOINT LeftUpLeg_virtual
	{
		OFFSET 0.000000 0.000000 0.000000
		CHANNELS 3 Xrotation Yrotation Zrotation
		JOINT LeftUpLeg
		{
			OFFSET 10.205400 -3.823500 0.155100
			CHANNELS 3 Xrotation Yrotation Zrotation
			JOINT LeftLeg
			{
				OFFSET 0.708757 -12.982077 0.567790
				CHANNELS 3 Xrotation Yrotation Zrotation
				JOINT LeftFoot
				{
					OFFSET -0.708756 -10.717838 -2.184338
					CHANNELS 3 Xrotation Yrotation Zrotation
					JOINT LeftToeBase
					{
						OFFSET 0.108149 -7.191104 7.560241
						CHANNELS 3 Xrotation Yrotation Zrotation
						JOINT LeftToe_End
						{
							OFFSET 0.070230 0.081724 4.490308
							CHANNELS 3 Xrotation Yrotation Zrotation
							End Site
							{
								OFFSET 0 0 0
							}
						}
					}
				}
			}
		}
	}
	JOINT RightUpLeg_virtual
	{
		OFFSET 0.000000 0.000000 0.000000
		CHANNELS 3 Xrotation Yrotation Zrotation
		JOINT RightUpLeg
		{
			OFFSET -10.205400 -3.823500 0.005500
			CHANNELS 3 Xrotation Yrotation Zrotation
			JOINT RightLeg
			{
				OFFSET -0.708756 -12.982134 0.610632
				CHANNELS 3 Xrotation Yrotation Zrotation
				JOINT RightFoot
				{
					OFFSET 0.708754 -10.717769 -1.945823
					CHANNELS 3 Xrotation Yrotation Zrotation
					JOINT RightToeBase
					{
						OFFSET -0.108140 -7.191069 7.372968
						CHANNELS 3 Xrotation Yrotation Zrotation
						JOINT RightToe_End
						{
							OFFSET -0.070227 0.081735 4.479403
							CHANNELS 3 Xrotation Yrotation Zrotation
							End Site
							{
								OFFSET 0 0 0
							}
						}
					}
				}
			}
		}
	}
	JOINT Spine_virtual
	{
		OFFSET 0.000000 0.000000 0.000000
		CHANNELS 3 Xrotation Yrotation Zrotation
		JOINT Spine
		{
			OFFSET 0.000000 6.876099 0.125700
			CHANNELS 3 Xrotation Yrotation Zrotation
			JOINT Spine1
			{
				OFFSET 0.000000 5.730043 0.104720
				CHANNELS 3 Xrotation Yrotation Zrotation
				JOINT Spine1_split
				{
					OFFSET 0.000000 5.730043 0.104720
					CHANNELS 3 Xrotation Yrotation Zrotation
					JOINT Spine2
					{
						OFFSET 0.000000 5.730043 0.104720
						CHANNELS 3 Xrotation Yrotation Zrotation
						JOINT Neck_virtual
						{
							OFFSET 0.000000 0.000000 0.000000
							CHANNELS 3 Xrotation Yrotation Zrotation
							JOINT Neck
							{
								OFFSET 0.000000 10.314075 0.188496
								CHANNELS 3 Xrotation Yrotation Zrotation
								JOINT Head
								{
									OFFSET 0.000000 7.643700 -2.377400
									CHANNELS 3 Xrotation Yrotation Zrotation
									JOINT HeadTop_End
									{
										OFFSET 0.000000 43.788605 -13.619600
										CHANNELS 3 Xrotation Yrotation Zrotation
										End Site
										{
											OFFSET 0 0 0
										}
									}
								}
							}
						}
						JOINT LeftShoulder_virtual
						{
							OFFSET 0.000000 0.000000 0.000000
							CHANNELS 3 Xrotation Yrotation Zrotation
							JOINT LeftShoulder
							{
								OFFSET 2.196100 4.412489 0.087492
								CHANNELS 3 Xrotation Yrotation Zrotation
								JOINT LeftShoulder_split
								{
									OFFSET 2.196100 4.412489 0.087492
									CHANNELS 3 Xrotation Yrotation Zrotation
									JOINT LeftArm
									{
										OFFSET 8.771219 -2.981674 -0.026999
										CHANNELS 3 Xrotation Yrotation Zrotation
										JOINT LeftForeArm
										{
											OFFSET 8.512804 0.000000 -0.000000
											CHANNELS 3 Xrotation Yrotation Zrotation
											JOINT LeftHand
											{
												OFFSET 18.484802 0.000000 -0.000000
												CHANNELS 3 Xrotation Yrotation Zrotation
												End Site
												{
													OFFSET 0 0 0
												}
											}
										}
									}
								}
							}
						}
						JOINT RightShoulder_virtual
						{
							OFFSET 0.000000 0.000000 0.000000
							CHANNELS 3 Xrotation Yrotation Zrotation
							JOINT RightShoulder
							{
								OFFSET -2.196100 4.412496 0.070690
								CHANNELS 3 Xrotation Yrotation Zrotation
								JOINT RightShoulder_split
								{
									OFFSET -2.196100 4.412496 0.070690
									CHANNELS 3 Xrotation Yrotation Zrotation
									JOINT RightArm
									{
										OFFSET -8.771282 -2.981682 -0.094208
										CHANNELS 3 Xrotation Yrotation Zrotation
										JOINT RightForeArm
										{
											OFFSET -8.494598 0.000000 0.000000
											CHANNELS 3 Xrotation Yrotation Zrotation
											JOINT RightHand
											{
												OFFSET -18.483803 0.000000 0.000001
												CHANNELS 3 Xrotation Yrotation Zrotation
												End Site
												{
													OFFSET 0 0 0
												}
											}
										}
									}
								}
							}
						}
					}
				}
			}
		}
	}
}
MOTION
Frames: 5
Frame Time: 0.03333333
5.225922 23.430885 -1.500118 0.000000 0.000000 0.000000 25.424170 -9.595073 0.343785 -102.911410 5.296888 5.100446 67.581764 15.508790 -3.667121 19.190421 16.831029 12.936643 -3.099475 -0.629341 9.190221 0.000000 0.000000 0.000000 25.133469 -8.738970 -0.683912 13.864358 -31.316175 1.591442 52.870920 22.060044 -1.627088 -37.274514 -32.021634 11.662132 -32.165290 16.363069 5.317088 0.000000 0.000000 0.000000 23.192978 -1.361709 -3.078289 9.954222 2.127168 -8.929914 0.990173 5.077826 -0.661495 -0.085231 0.021894 0.276951 0.000000 0.000000 0.000000 1.701186 7.298721 -1.030993 3.789947 1.252797 12.179189 -44.561954 -28.604093 13.723747 0.000000 0.000000 0.000000 1.847194 5.475947 -1.173738 1.325681 0.924820 -17.431162 -2.218432 1.323329 2.556893 -1.767398 33.583186 -34.437103 6.206719 -28.127540 -2.393811 0.000000 0.000000 0.000000 3.674092 6.148833 -1.382326 -3.546012 6.215484 -10.078187 13.224489 3.939712 9.401242 -24.261928 50.208266 -6.835968 -123.739382 60.976541 114.685857 0.000000 0.000000 0.000000 
4.807724 23.447601 -0.633434 0.000000 0.000000 0.000000 26.577876 -8.870515 0.029463 -102.641433 5.328406 6.352911 68.918617 14.490825 -3.343771 18.599056 16.269719 12.762690 -3.308027 -0.720156 9.278355 0.000000 0.000000 0.000000 26.205732 -7.859997 -1.276401 11.237774 -30.948598 -0.030797 53.938991 22.317431 -1.774672 -36.265928 -31.453216 9.629335 -28.168081 16.180199 5.650598 0.000000 0.000000 0.000000 25.248289 -0.534594 -3.014052 10.566356 2.034001 -9.139544 1.184569 4.923043 -0.741817 0.162571 -0.105311 0.284460 0.000000 0.000000 0.000000 1.796639 7.163544 -1.126634 3.775116 1.906929 11.593697 -43.196497 -28.561445 13.860633 0.000000 0.000000 0.000000 1.954812 5.305211 -1.187938 1.252166 -0.337136 -17.474978 -2.490692 0.193572 2.214230 -4.046635 32.203724 -34.149805 6.225571 -29.078530 -2.288364 0.000000 0.000000 0.000000 3.610344 5.950045 -1.396929 -3.272226 6.645854 -10.046633 13.963522 3.757234 9.283124 -24.109120 49.124278 -6.984983 -123.810935 60.952171 114.873591 0.000000 0.000000 0.000000 
4.180981 23.486794 0.327812 0.000000 0.000000 0.000000 28.223257 -7.454101 -0.660284 -102.631570 4.764865 8.027087 71.162443 12.600244 -3.140772 16.608378 15.156671 12.844287 -3.841100 -0.885781 9.310887 0.000000 0.000000 0.000000 27.996119 -6.552419 -1.940085 3.658162 -31.178366 -4.847256 56.790837 23.317535 -2.464367 -29.657368 -31.240285 11.875007 -28.962369 15.822256 5.598269 0.000000 0.000000 0.000000 28.038157 0.325107 -3.105973 11.900841 1.731859 -8.981842 1.204515 4.674211 -0.938823 0.345066 -0.152533 0.183397 0.000000 0.000000 0.000000 1.731193 6.926524 -1.372357 3.247166 2.822289 10.787376 -41.262296 -27.046670 14.282142 0.000000 0.000000 0.000000 1.875856 5.006561 -1.302970 1.100242 -2.368883 -17.534636 -2.663473 0.086899 1.301009 -7.916784 30.247455 -32.851745 5.873088 -31.067481 -2.186790 0.000000 0.000000 0.000000 3.355903 5.596660 -1.561292 -3.066482 6.971694 -9.767416 14.081000 3.994495 9.239479 -22.277408 46.865299 -7.385106 -125.579421 61.187252 116.811002 0.000000 0.000000 0.000000 
3.487125 23.495344 1.325613 0.000000 0.000000 0.000000 30.164393 -5.640125 -1.523640 -102.773071 3.645871 9.648190 73.585767 10.001027 -2.960152 13.190346 13.707814 12.992728 -4.268503 -1.058506 9.256668 0.000000 0.000000 0.000000 30.344434 -4.799302 -2.603727 -7.371893 -31.107468 -11.904279 60.440740 24.446473 -3.542273 -20.327189 -31.068826 17.270418 -33.551733 15.368581 4.956842 0.000000 0.000000 0.000000 31.017204 1.347649 -3.370831 13.619016 1.337310 -8.559488 1.016307 4.333125 -1.233421 0.354110 -0.166804 0.065429 0.000000 0.000000 0.000000 1.559064 6.594139 -1.719718 2.372517 3.927079 9.825701 -39.183207 -24.173115 14.819106 0.000000 0.000000 0.000000 1.631676 4.612203 -1.495703 0.894724 -4.781994 -17.705886 -3.048571 0.683846 -0.015674 -12.136670 28.064394 -30.991218 5.182485 -33.859570 -2.136568 0.000000 0.000000 0.000000 2.945690 5.115316 -1.856344 -2.895262 7.217864 -9.375014 13.656647 4.510198 9.323884 -19.320443 44.108259 -7.660316 -128.879222 61.549929 120.345829 0.000000 0.000000 0.000000 
2.773321 23.459536 2.478733 0.000000 0.000000 0.000000 32.313328 -3.458598 -2.484921 -102.728968 2.079088 10.708011 75.580073 7.027090 -2.652017 8.895622 12.290855 12.657030 -4.266464 -1.167375 9.113061 0.000000 0.000000 0.000000 32.747567 -2.936878 -3.188896 -19.540601 -30.142468 -19.324564 63.713712 24.717556 -4.676594 -12.103543 -31.377302 22.748447 -37.716626 14.995472 3.620613 0.000000 0.000000 0.000000 33.913908 2.470775 -3.816095 15.444716 0.870027 -8.032752 0.682275 3.889191 -1.609246 0.324353 -0.192762 -0.003619 0.000000 0.000000 0.000000 1.350177 6.152808 -2.102730 1.333152 5.151269 8.846736 -37.463308 -20.142252 15.203738 0.000000 0.000000 0.000000 1.308770 4.143854 -1.752557 0.632737 -7.253352 -18.136652 -3.674269 1.152347 -1.349980 -15.692845 25.854940 -28.918232 4.306086 -37.335979 -2.105283 0.000000 0.000000 0.000000 2.494469 4.546609 -2.230295 -2.736243 7.450720 -8.944428 12.871353 4.966871 9.718094 -15.832986 41.431466 -7.719061 -133.355141 61.839337 125.129913 0.000000 0.000000 0.000000 
